<svg width="1600" height="900" viewBox="0 0 1600 900" fill="none" xmlns="http://www.w3.org/2000/svg">
  <defs>
    <linearGradient id="bg2" x1="0" y1="0" x2="1600" y2="900" gradientUnits="userSpaceOnUse">
      <stop stop-color="#0B1024"/>
      <stop offset="1" stop-color="#132037"/>
    </linearGradient>
  </defs>
  <rect width="1600" height="900" rx="28" fill="url(#bg2)"/>
  <rect x="56" y="56" width="1488" height="788" rx="26" fill="#0E1A2E" stroke="#2DD4BF" stroke-opacity="0.45"/>
  <rect x="96" y="96" width="560" height="708" rx="20" fill="#0B2339" stroke="#2DD4BF" stroke-opacity="0.25"/>
  <text x="132" y="175" fill="#5EEAD4" font-size="54" font-family="Segoe UI, Arial">PromoHub</text>
  <text x="132" y="225" fill="#CCFBF1" font-size="26" font-family="Segoe UI, Arial">Influencer and Brand Collaboration SaaS</text>
  <rect x="132" y="272" width="488" height="120" rx="14" fill="#102C46"/>
  <text x="162" y="340" fill="#E2E8F0" font-size="30" font-family="Segoe UI, Arial">Role-based onboarding and chatbot UX</text>
  <rect x="700" y="96" width="804" height="708" rx="20" fill="#0A1728" stroke="#2DD4BF" stroke-opacity="0.2"/>
  <rect x="742" y="140" width="720" height="72" rx="12" fill="#11314A"/>
  <circle cx="784" cy="176" r="11" fill="#34D399"/>
  <circle cx="820" cy="176" r="11" fill="#FBBF24"/>
  <circle cx="856" cy="176" r="11" fill="#F87171"/>
  <rect x="742" y="248" width="322" height="516" rx="14" fill="#10273F"/>
  <rect x="1082" y="248" width="380" height="228" rx="14" fill="#0F2439"/>
  <rect x="1082" y="500" width="380" height="264" rx="14" fill="#10273F"/>
  <text x="786" y="302" fill="#5EEAD4" font-size="24" font-family="Segoe UI, Arial">Onboarding Bot</text>
  <text x="1122" y="302" fill="#5EEAD4" font-size="24" font-family="Segoe UI, Arial">Brand Dashboard</text>
  <text x="1122" y="555" fill="#5EEAD4" font-size="24" font-family="Segoe UI, Arial">Influencer Discovery Grid</text>
</svg>
